<?xml version="1.0" standalone="no"?>
<!DOCTYPE svg PUBLIC "-//W3C//DTD SVG 20010904//EN"
 "http://www.w3.org/TR/2001/REC-SVG-20010904/DTD/svg10.dtd">
<svg version="1.0" xmlns="http://www.w3.org/2000/svg"
 width="524.000000pt" height="200.000000pt" viewBox="0 0 524.000000 200.000000"
 preserveAspectRatio="xMidYMid meet">

<g transform="translate(0.000000,200.000000) scale(0.100000,-0.100000)"
fill="#000000" stroke="none">
<path d="M4670 1235 l0 -535 85 0 85 0 0 535 0 535 -85 0 -85 0 0 -535z"/>
<path d="M2090 1701 c-36 -35 -46 -73 -30 -110 17 -42 43 -62 88 -68 112 -15
173 118 85 187 -40 31 -107 27 -143 -9z"/>
<path d="M853 1701 c-46 -21 -78 -64 -87 -116 -6 -30 -12 -34 -109 -70 -56
-21 -114 -46 -128 -56 -15 -10 -45 -50 -68 -88 l-42 -69 -53 -4 c-68 -6 -109
-35 -131 -93 -35 -90 15 -177 113 -199 l53 -12 57 -125 c69 -152 82 -173 119
-188 15 -6 114 -28 218 -49 105 -21 196 -41 203 -45 6 -5 12 -17 12 -27 0 -29
61 -87 105 -99 21 -6 55 -8 75 -5 32 5 38 1 77 -44 l42 -49 -17 -45 c-15 -42
-15 -48 2 -92 24 -63 73 -96 141 -96 137 0 204 145 115 245 -18 19 -17 24 27
133 39 96 48 112 67 112 13 0 42 10 66 23 76 40 101 124 59 201 l-20 38 35 68
c47 90 46 117 -9 214 -25 43 -45 81 -45 84 0 3 10 25 21 49 34 70 15 135 -53
186 -36 27 -107 33 -145 13 -31 -15 -31 -15 -97 35 -98 74 -116 79 -263 79
l-128 0 -13 30 c-29 64 -127 94 -199 61z m106 -66 c73 -37 45 -145 -39 -145
-39 0 -79 28 -81 58 -4 51 10 78 46 92 29 13 43 12 74 -5z m364 -119 c18 -8
56 -32 86 -55 l54 -41 1 -57 c2 -92 48 -140 145 -152 42 -6 45 -8 88 -83 l45
-77 -34 -63 c-33 -60 -37 -63 -79 -68 -61 -8 -106 -37 -129 -85 -30 -62 -23
-114 22 -162 l20 -22 -43 -110 -44 -110 -40 -7 c-38 -6 -41 -4 -83 41 -33 37
-42 53 -36 69 3 12 8 41 11 66 12 135 -169 204 -266 102 l-26 -28 -195 37
c-107 21 -201 42 -208 46 -11 7 -112 215 -127 262 -3 12 4 34 20 56 30 46 32
96 6 146 l-20 37 42 68 42 69 95 37 c52 20 103 37 112 37 9 1 34 -10 54 -24
72 -49 171 -26 215 50 l21 35 109 0 c72 0 121 -5 142 -14z m348 -105 c36 -36
37 -60 3 -100 -33 -40 -83 -43 -119 -6 -50 49 -15 135 55 135 21 0 41 -9 61
-29z m-1236 -206 c33 -33 32 -70 -4 -106 -39 -38 -74 -38 -113 1 -25 26 -29
36 -24 63 13 66 93 91 141 42z m1260 -380 c33 -32 33 -75 -1 -109 -36 -35 -77
-34 -115 3 -31 32 -35 50 -17 84 28 53 92 64 133 22z m-475 -173 c28 -35 25
-69 -10 -104 -26 -25 -36 -29 -62 -24 -59 12 -88 58 -67 109 24 56 102 67 139
19z m269 -318 c39 -32 42 -80 9 -111 -34 -30 -55 -34 -92 -19 -65 27 -68 111
-6 143 37 19 55 16 89 -13z"/>
<path d="M2602 1406 c-125 -41 -184 -160 -133 -271 26 -58 78 -99 173 -134
131 -50 159 -63 169 -83 24 -45 -26 -88 -103 -88 -59 0 -105 14 -160 49 l-47
30 -40 -56 c-47 -66 -46 -69 40 -112 78 -39 158 -55 245 -48 114 8 189 51 221
126 17 39 19 124 5 162 -16 41 -73 84 -158 117 -44 18 -104 45 -134 60 -47 24
-55 33 -58 60 -7 71 112 84 211 22 28 -17 53 -27 56 -22 3 5 21 32 40 61 l35
53 -25 19 c-72 56 -246 84 -337 55z"/>
<path d="M3272 1406 c-125 -41 -184 -160 -133 -271 26 -58 78 -99 173 -134
131 -50 159 -63 169 -83 24 -45 -26 -88 -103 -88 -59 0 -105 14 -160 49 l-47
30 -40 -56 c-47 -66 -46 -69 40 -112 78 -39 158 -55 245 -48 114 8 189 51 221
126 17 39 19 124 5 162 -16 41 -73 84 -158 117 -44 18 -104 45 -134 60 -47 24
-55 33 -58 60 -7 71 112 84 211 22 28 -17 53 -27 56 -22 3 5 21 32 40 61 l35
53 -25 19 c-72 56 -246 84 -337 55z"/>
<path d="M4037 1410 c-98 -25 -182 -95 -226 -189 -23 -50 -26 -68 -26 -166 0
-102 2 -114 29 -168 33 -63 93 -125 153 -155 137 -69 340 -47 445 48 l43 40
-54 48 -55 49 -43 -33 c-50 -38 -90 -48 -173 -42 -73 5 -130 42 -160 102 -11
23 -20 45 -20 49 0 4 119 7 265 7 l264 0 6 33 c8 43 -11 148 -37 204 -28 60
-90 121 -155 150 -61 28 -189 40 -256 23z m166 -145 c35 -7 75 -42 97 -86 11
-21 20 -41 20 -44 0 -3 -83 -5 -185 -5 l-185 0 11 28 c12 30 54 78 84 95 11 6
36 14 55 17 33 7 51 6 103 -5z"/>
<path d="M2080 1055 l0 -355 85 0 85 0 0 355 0 355 -85 0 -85 0 0 -355z"/>
<path d="M2455 473 c-4 -32 -9 -66 -11 -75 -3 -10 -1 -18 5 -18 10 0 15 21 26
103 4 28 2 47 -4 47 -5 0 -13 -26 -16 -57z"/>
<path d="M2515 473 c-4 -32 -9 -66 -11 -75 -3 -10 -1 -18 5 -18 10 0 15 21 26
103 4 28 2 47 -4 47 -5 0 -13 -26 -16 -57z"/>
<path d="M4295 515 c-3 -8 -8 -23 -11 -32 -8 -25 -10 -103 -3 -103 9 0 19 27
19 52 0 12 8 27 18 34 10 8 12 13 5 14 -19 0 -16 21 5 36 16 12 15 13 -6 14
-12 0 -25 -7 -27 -15z"/>
<path d="M2105 454 c-6 -59 -3 -85 9 -73 11 11 18 139 9 139 -6 0 -14 -30 -18
-66z"/>
<path d="M2570 510 c0 -5 5 -10 10 -10 6 0 10 5 10 10 0 6 -4 10 -10 10 -5 0
-10 -4 -10 -10z"/>
<path d="M3072 508 c-19 -19 -15 -31 19 -59 38 -31 32 -54 -12 -45 -36 7 -38
-11 -2 -20 34 -9 57 6 61 39 2 18 -2 27 -17 32 -10 3 -25 13 -32 21 -17 20 7
37 32 23 18 -9 34 2 22 15 -11 10 -58 7 -71 -6z"/>
<path d="M3871 506 c-7 -8 -11 -20 -10 -28 1 -7 -4 -26 -11 -41 -12 -24 -11
-30 3 -44 23 -23 67 -7 85 30 7 15 20 27 28 27 7 0 14 5 14 10 0 6 -22 10 -50
10 -37 0 -50 4 -50 14 0 21 19 30 35 16 7 -6 16 -7 19 -2 15 24 -44 31 -63 8z
m59 -62 c0 -18 -23 -44 -40 -44 -25 0 -35 17 -20 35 12 14 60 21 60 9z"/>
<path d="M4062 508 c-19 -19 -15 -31 19 -59 38 -31 32 -54 -12 -45 -36 7 -38
-11 -2 -20 34 -9 57 6 61 39 2 18 -2 27 -17 32 -10 3 -25 13 -32 21 -17 20 7
37 32 23 18 -9 34 2 22 15 -11 10 -58 7 -71 -6z"/>
<path d="M2295 493 c-9 -15 -11 -54 -6 -105 1 -12 41 -9 41 2 0 6 -4 10 -10
10 -5 0 -10 14 -10 30 0 20 5 30 15 30 8 0 15 5 15 10 0 6 -7 10 -15 10 -9 0
-12 6 -9 15 8 21 -9 19 -21 -2z"/>
<path d="M2955 493 c-9 -15 -11 -54 -6 -105 1 -12 41 -9 41 2 0 6 -4 10 -10
10 -5 0 -10 14 -10 30 0 20 5 30 15 30 8 0 15 5 15 10 0 6 -7 10 -15 10 -9 0
-12 6 -9 15 8 21 -9 19 -21 -2z"/>
<path d="M3385 493 c-9 -15 -11 -54 -6 -105 1 -12 41 -9 41 2 0 6 -4 10 -10
10 -5 0 -10 14 -10 30 0 20 5 30 15 30 8 0 15 5 15 10 0 6 -7 10 -15 10 -9 0
-12 6 -9 15 8 21 -9 19 -21 -2z"/>
<path d="M4355 493 c-9 -15 -11 -54 -6 -105 1 -12 41 -9 41 2 0 6 -4 10 -10
10 -5 0 -10 14 -10 30 0 20 5 30 15 30 8 0 15 5 15 10 0 6 -7 10 -15 10 -9 0
-12 6 -9 15 8 21 -9 19 -21 -2z"/>
<path d="M2170 453 c0 -16 -3 -38 -6 -50 -4 -14 -2 -23 5 -23 6 0 11 8 11 18
0 21 27 62 41 62 5 0 9 -18 9 -40 0 -22 5 -40 10 -40 6 0 10 20 10 45 0 49
-18 67 -45 45 -10 -9 -15 -9 -15 -1 0 6 -4 11 -10 11 -5 0 -10 -12 -10 -27z"/>
<path d="M2356 458 c-31 -44 -9 -86 39 -74 33 8 24 25 -10 18 -15 -2 -25 0
-25 7 0 6 8 11 19 11 24 0 45 25 37 45 -8 22 -43 18 -60 -7z m44 -8 c0 -5 -2
-10 -4 -10 -2 0 -12 -3 -20 -6 -12 -5 -15 -2 -10 10 7 17 34 22 34 6z"/>
<path d="M2557 433 c-5 -46 -3 -62 8 -51 11 10 17 98 8 98 -6 0 -13 -21 -16
-47z"/>
<path d="M2615 457 c-31 -44 -7 -89 36 -67 19 11 21 10 16 -5 -4 -9 -7 -19 -7
-21 0 -2 -14 -4 -31 -4 -17 0 -28 -4 -24 -10 3 -5 17 -10 30 -10 31 0 51 31
58 91 l6 46 -34 1 c-25 1 -39 -5 -50 -21z m55 -16 c0 -10 -7 -24 -15 -31 -21
-17 -39 1 -30 29 8 27 45 28 45 2z"/>
<path d="M2736 458 c-31 -44 -9 -86 39 -74 33 8 24 25 -10 18 -15 -2 -25 0
-25 7 0 6 8 11 19 11 24 0 45 25 37 45 -8 22 -43 18 -60 -7z m44 -8 c0 -5 -2
-10 -4 -10 -2 0 -12 -3 -20 -6 -12 -5 -15 -2 -10 10 7 17 34 22 34 6z"/>
<path d="M2830 453 c0 -16 -3 -38 -6 -50 -4 -14 -2 -23 5 -23 6 0 11 8 11 18
0 21 27 62 41 62 5 0 9 -18 9 -40 0 -22 5 -40 10 -40 6 0 10 20 10 45 0 49
-18 67 -45 45 -10 -9 -15 -9 -15 -1 0 6 -4 11 -10 11 -5 0 -10 -12 -10 -27z"/>
<path d="M3177 444 c-8 -49 1 -67 30 -61 15 3 22 0 20 -7 -2 -6 -17 -14 -33
-17 -24 -5 -26 -7 -11 -14 29 -12 63 10 71 45 9 49 7 92 -4 85 -5 -3 -10 -16
-10 -29 0 -25 -17 -46 -38 -46 -11 0 -12 9 -7 40 4 24 3 40 -3 40 -5 0 -12
-16 -15 -36z"/>
<path d="M3290 465 c-10 -12 -7 -19 16 -40 l27 -25 -27 0 c-16 0 -25 -4 -21
-10 9 -15 41 -12 56 6 11 13 8 19 -17 39 l-29 24 28 1 c16 0 26 4 22 10 -9 15
-41 12 -55 -5z"/>
<path d="M3456 458 c-31 -44 -9 -86 39 -74 33 8 24 25 -10 18 -15 -2 -25 0
-25 7 0 6 8 11 19 11 24 0 45 25 37 45 -8 22 -43 18 -60 -7z m44 -8 c0 -5 -2
-10 -4 -10 -2 0 -12 -3 -20 -6 -12 -5 -15 -2 -10 10 7 17 34 22 34 6z"/>
<path d="M3550 453 c0 -16 -3 -38 -6 -50 -4 -13 -2 -23 2 -23 12 0 33 70 27
87 -9 23 -23 14 -23 -14z"/>
<path d="M3585 470 c-3 -5 1 -10 11 -10 14 0 16 -7 11 -40 -6 -45 7 -55 18
-13 15 62 50 73 42 13 -5 -40 5 -55 17 -24 20 52 -6 102 -38 75 -10 -8 -16 -9
-21 -1 -8 13 -32 13 -40 0z"/>
<path d="M3720 465 c-10 -12 -7 -19 16 -40 l27 -25 -27 0 c-16 0 -25 -4 -21
-10 9 -15 41 -12 56 6 11 13 8 19 -17 39 l-29 24 28 1 c16 0 26 4 22 10 -9 15
-41 12 -55 -5z"/>
<path d="M4174 455 c-30 -46 2 -89 50 -67 21 9 26 19 26 46 0 51 -47 64 -76
21z m56 -20 c0 -28 -25 -44 -42 -27 -15 15 1 52 23 52 14 0 19 -7 19 -25z"/>
<path d="M4417 444 c-9 -54 -2 -62 51 -60 39 1 49 5 59 26 15 30 17 70 3 70
-5 0 -10 -9 -10 -21 0 -25 -17 -59 -30 -59 -6 0 -8 16 -4 40 4 27 3 40 -5 40
-6 0 -11 -9 -11 -21 0 -25 -17 -59 -30 -59 -6 0 -8 16 -4 40 4 24 3 40 -3 40
-6 0 -13 -16 -16 -36z"/>
<path d="M4575 457 c-8 -12 -15 -29 -15 -38 0 -24 26 -43 47 -33 16 7 15 8 -4
11 -36 7 -27 63 9 63 17 0 20 -5 15 -28 -5 -26 6 -63 16 -52 2 3 7 26 9 51 l5
46 -33 1 c-24 1 -38 -5 -49 -21z"/>
<path d="M4690 453 c0 -16 -3 -38 -6 -50 -4 -13 -2 -23 4 -23 5 0 13 15 16 34
4 19 13 37 21 40 8 3 15 11 15 17 0 8 -4 8 -15 -1 -10 -9 -15 -9 -15 -1 0 6
-4 11 -10 11 -5 0 -10 -12 -10 -27z"/>
<path d="M4766 458 c-31 -44 -9 -86 39 -74 33 8 24 25 -10 18 -15 -2 -25 0
-25 7 0 6 8 11 19 11 24 0 45 25 37 45 -8 22 -43 18 -60 -7z m44 -8 c0 -5 -2
-10 -4 -10 -2 0 -12 -3 -20 -6 -12 -5 -15 -2 -10 10 7 17 34 22 34 6z"/>
<path d="M3475 243 c-3 -27 -8 -58 -11 -70 -3 -18 1 -24 22 -29 33 -9 56 5 68
40 12 33 -12 63 -41 51 -16 -8 -16 -9 5 -12 40 -7 21 -63 -21 -63 -14 0 -17 4
-12 18 11 26 14 112 5 112 -5 0 -12 -21 -15 -47z"/>
<path d="M2106 234 c-12 -91 -11 -94 34 -94 22 0 40 5 40 10 0 6 -13 10 -30
10 -23 0 -30 4 -30 20 0 15 7 20 25 20 14 0 25 5 25 10 0 6 -9 10 -20 10 -13
0 -20 7 -20 20 0 16 7 20 30 20 17 0 30 5 30 10 0 6 -17 10 -39 10 -38 0 -38
0 -45 -46z"/>
<path d="M2470 270 c0 -5 5 -10 10 -10 6 0 10 5 10 10 0 6 -4 10 -10 10 -5 0
-10 -4 -10 -10z"/>
<path d="M2910 270 c0 -5 5 -10 10 -10 6 0 10 5 10 10 0 6 -4 10 -10 10 -5 0
-10 -4 -10 -10z"/>
<path d="M3246 234 c-12 -91 -11 -94 34 -94 22 0 40 5 40 10 0 6 -14 10 -30
10 l-31 0 7 60 c8 72 -10 84 -20 14z"/>
<path d="M2220 213 c0 -16 -3 -38 -6 -50 -4 -14 -2 -23 5 -23 6 0 11 8 11 18
0 21 27 62 41 62 5 0 9 -18 9 -40 0 -22 5 -40 10 -40 6 0 10 20 10 45 0 49
-18 67 -45 45 -10 -9 -15 -9 -15 -1 0 6 -4 11 -10 11 -5 0 -10 -12 -10 -27z"/>
<path d="M2345 217 c-31 -44 -7 -89 36 -67 19 11 21 10 16 -5 -4 -9 -7 -19 -7
-21 0 -2 -14 -4 -31 -4 -17 0 -28 -4 -24 -10 3 -5 17 -10 30 -10 31 0 51 31
58 91 l6 46 -34 1 c-25 1 -39 -5 -50 -21z m55 -16 c0 -10 -7 -24 -15 -31 -21
-17 -39 1 -30 29 8 27 45 28 45 2z"/>
<path d="M2457 193 c-5 -46 -3 -62 8 -51 11 10 17 98 8 98 -6 0 -13 -21 -16
-47z"/>
<path d="M2510 213 c0 -16 -3 -38 -6 -50 -4 -14 -2 -23 5 -23 6 0 11 8 11 18
0 21 27 62 41 62 5 0 9 -18 9 -40 0 -22 5 -40 10 -40 6 0 10 20 10 45 0 49
-18 67 -45 45 -10 -9 -15 -9 -15 -1 0 6 -4 11 -10 11 -5 0 -10 -12 -10 -27z"/>
<path d="M2636 218 c-31 -44 -9 -86 39 -74 33 8 24 25 -10 18 -15 -2 -25 0
-25 7 0 6 8 11 19 11 24 0 45 25 37 45 -8 22 -43 18 -60 -7z m44 -8 c0 -5 -2
-10 -4 -10 -2 0 -12 -3 -20 -6 -12 -5 -15 -2 -10 10 7 17 34 22 34 6z"/>
<path d="M2736 218 c-31 -44 -9 -86 39 -74 33 8 24 25 -10 18 -15 -2 -25 0
-25 7 0 6 8 11 19 11 24 0 45 25 37 45 -8 22 -43 18 -60 -7z m44 -8 c0 -5 -2
-10 -4 -10 -2 0 -12 -3 -20 -6 -12 -5 -15 -2 -10 10 7 17 34 22 34 6z"/>
<path d="M2830 213 c0 -16 -3 -38 -6 -50 -4 -13 -2 -23 4 -23 5 0 13 15 16 34
4 19 13 37 21 40 8 3 15 11 15 17 0 8 -4 8 -15 -1 -10 -9 -15 -9 -15 -1 0 6
-4 11 -10 11 -5 0 -10 -12 -10 -27z"/>
<path d="M2897 193 c-5 -46 -3 -62 8 -51 11 10 17 98 8 98 -6 0 -13 -21 -16
-47z"/>
<path d="M2960 213 c0 -16 -3 -38 -6 -50 -4 -14 -2 -23 5 -23 6 0 11 8 11 18
0 21 27 62 41 62 5 0 9 -18 9 -40 0 -22 5 -40 10 -40 6 0 10 20 10 45 0 49
-18 67 -45 45 -10 -9 -15 -9 -15 -1 0 6 -4 11 -10 11 -5 0 -10 -12 -10 -27z"/>
<path d="M3085 217 c-31 -44 -7 -89 36 -67 19 11 21 10 16 -5 -4 -9 -7 -19 -7
-21 0 -2 -14 -4 -31 -4 -17 0 -28 -4 -24 -10 3 -5 17 -10 30 -10 31 0 51 31
58 91 l6 46 -34 1 c-25 1 -39 -5 -50 -21z m55 -16 c0 -10 -7 -24 -15 -31 -21
-17 -39 1 -30 29 8 27 45 28 45 2z"/>
<path d="M3355 217 c-8 -12 -15 -29 -15 -38 0 -24 26 -43 47 -33 16 7 15 8 -4
11 -36 7 -27 63 9 63 17 0 20 -5 15 -28 -5 -26 6 -63 16 -52 2 3 7 26 9 51 l5
46 -33 1 c-24 1 -38 -5 -49 -21z"/>
<path d="M3595 217 c-31 -44 -7 -89 36 -67 19 11 21 10 16 -5 -4 -9 -7 -19 -7
-21 0 -2 -14 -4 -31 -4 -17 0 -28 -4 -24 -10 3 -5 17 -10 30 -10 31 0 51 31
58 91 l6 46 -34 1 c-25 1 -39 -5 -50 -21z m55 -16 c0 -10 -7 -24 -15 -31 -21
-17 -39 1 -30 29 8 27 45 28 45 2z"/>
<path d="M3700 213 c0 -16 -3 -38 -6 -50 -4 -13 -2 -23 4 -23 5 0 13 15 16 34
4 19 13 37 21 40 8 3 15 11 15 17 0 8 -4 8 -15 -1 -10 -9 -15 -9 -15 -1 0 6
-4 11 -10 11 -5 0 -10 -12 -10 -27z"/>
<path d="M3784 215 c-30 -46 2 -89 50 -67 21 9 26 19 26 46 0 51 -47 64 -76
21z m56 -20 c0 -28 -25 -44 -42 -27 -15 15 1 52 23 52 14 0 19 -7 19 -25z"/>
<path d="M3887 204 c-8 -51 0 -64 38 -62 25 1 35 7 39 22 9 34 7 76 -4 76 -5
0 -10 -13 -10 -28 0 -30 -16 -52 -38 -52 -11 0 -12 9 -7 40 4 24 3 40 -3 40
-5 0 -12 -16 -15 -36z"/>
<path d="M4000 223 c0 -10 -3 -42 -6 -70 -5 -37 -3 -53 5 -53 6 0 11 11 11 24
0 19 4 22 24 19 25 -5 56 27 56 58 0 24 -26 43 -47 33 -16 -7 -15 -8 5 -11 33
-6 27 -63 -7 -63 -25 0 -32 10 -21 31 11 19 4 49 -11 49 -5 0 -9 -8 -9 -17z"/>
</g>
</svg>
