<?xml version="1.0" standalone="no"?>
<!DOCTYPE svg PUBLIC "-//W3C//DTD SVG 20010904//EN"
 "http://www.w3.org/TR/2001/REC-SVG-20010904/DTD/svg10.dtd">
<svg version="1.0" xmlns="http://www.w3.org/2000/svg"
 width="195.000000pt" height="200.000000pt" viewBox="0 0 195.000000 200.000000"
 preserveAspectRatio="xMidYMid meet">

<g transform="translate(0.000000,200.000000) scale(0.100000,-0.100000)"
fill="#000000" stroke="none">
<path d="M753 1701 c-46 -21 -78 -64 -87 -116 -6 -30 -12 -34 -109 -70 -56
-21 -114 -46 -128 -56 -15 -10 -45 -50 -68 -88 l-42 -69 -53 -4 c-68 -6 -109
-35 -131 -93 -35 -90 15 -177 113 -199 l53 -12 57 -125 c69 -152 82 -173 119
-188 15 -6 114 -28 218 -49 105 -21 196 -41 203 -45 6 -5 12 -17 12 -27 0 -29
61 -87 105 -99 21 -6 55 -8 75 -5 32 5 38 1 77 -44 l42 -49 -17 -45 c-15 -42
-15 -48 2 -92 24 -63 73 -96 141 -96 137 0 204 145 115 245 -18 19 -17 24 27
133 39 96 48 112 67 112 13 0 42 10 66 23 76 40 101 124 59 201 l-20 38 35 68
c47 90 46 117 -9 214 -25 43 -45 81 -45 84 0 3 10 25 21 49 34 70 15 135 -53
186 -36 27 -107 33 -145 13 -31 -15 -31 -15 -97 35 -98 74 -116 79 -263 79
l-128 0 -13 30 c-29 64 -127 94 -199 61z m106 -66 c73 -37 45 -145 -39 -145
-39 0 -79 28 -81 58 -4 51 10 78 46 92 29 13 43 12 74 -5z m364 -119 c18 -8
56 -32 86 -55 l54 -41 1 -57 c2 -92 48 -140 145 -152 42 -6 45 -8 88 -83 l45
-77 -34 -63 c-33 -60 -37 -63 -79 -68 -61 -8 -106 -37 -129 -85 -30 -62 -23
-114 22 -162 l20 -22 -43 -110 -44 -110 -40 -7 c-38 -6 -41 -4 -83 41 -33 37
-42 53 -36 69 3 12 8 41 11 66 12 135 -169 204 -266 102 l-26 -28 -195 37
c-107 21 -201 42 -208 46 -11 7 -112 215 -127 262 -3 12 4 34 20 56 30 46 32
96 6 146 l-20 37 42 68 42 69 95 37 c52 20 103 37 112 37 9 1 34 -10 54 -24
72 -49 171 -26 215 50 l21 35 109 0 c72 0 121 -5 142 -14z m348 -105 c36 -36
37 -60 3 -100 -33 -40 -83 -43 -119 -6 -50 49 -15 135 55 135 21 0 41 -9 61
-29z m-1236 -206 c33 -33 32 -70 -4 -106 -39 -38 -74 -38 -113 1 -25 26 -29
36 -24 63 13 66 93 91 141 42z m1260 -380 c33 -32 33 -75 -1 -109 -36 -35 -77
-34 -115 3 -31 32 -35 50 -17 84 28 53 92 64 133 22z m-475 -173 c28 -35 25
-69 -10 -104 -26 -25 -36 -29 -62 -24 -59 12 -88 58 -67 109 24 56 102 67 139
19z m269 -318 c39 -32 42 -80 9 -111 -34 -30 -55 -34 -92 -19 -65 27 -68 111
-6 143 37 19 55 16 89 -13z"/>
</g>
</svg>
